<svg width="140" height="140" viewBox="0 0 140 140" fill="none" xmlns="http://www.w3.org/2000/svg">
<circle cx="69.9981" cy="69.9766" r="69.213" fill="white"/>
<path fill-rule="evenodd" clip-rule="evenodd" d="M51.2969 81.0508V86.5878C51.2969 88.1169 52.5363 89.3563 54.0654 89.3563H95.5932C97.1221 89.3563 98.3617 88.1169 98.3617 86.5878V64.4397C98.3617 62.9106 97.1221 61.6711 95.5932 61.6711H92.1472V66.7496C92.2967 66.9722 92.4677 67.1802 92.6583 67.3707C93.0438 67.7563 93.5017 68.0623 94.0054 68.2709C94.5089 68.4795 95.0483 68.5868 95.5932 68.587V82.435C95.0559 82.4382 94.5245 82.5455 94.0281 82.7512C93.5243 82.9598 93.0665 83.2657 92.6808 83.6514C92.2952 84.037 91.9894 84.4948 91.7806 84.9985C91.5719 85.5024 91.4645 86.0424 91.4645 86.5878H58.2124C58.2057 86.0601 58.0986 85.5384 57.8966 85.0506C57.6879 84.5469 57.3819 84.0891 56.9963 83.7034C56.6108 83.3178 56.153 83.0119 55.6491 82.8032C55.1469 82.5952 54.6089 82.4878 54.0654 82.4871V81.0508H51.2969Z" fill="#1CB5BD"/>
<path fill-rule="evenodd" clip-rule="evenodd" d="M65.8456 67.2081C67.3747 67.2081 68.6141 65.9687 68.6141 64.4396C68.6141 62.9106 67.3747 61.6711 65.8456 61.6711C64.3166 61.6711 63.0771 62.9106 63.0771 64.4396C63.0771 65.9687 64.3166 67.2081 65.8456 67.2081ZM65.8456 69.9767C68.9036 69.9767 71.3827 67.4976 71.3827 64.4396C71.3827 61.3817 68.9036 58.9026 65.8456 58.9026C62.7877 58.9026 60.3086 61.3817 60.3086 64.4396C60.3086 67.4976 62.7877 69.9767 65.8456 69.9767Z" fill="#1CB5BD"/>
<path fill-rule="evenodd" clip-rule="evenodd" d="M45.0791 50.5969C43.5501 50.5969 42.3105 51.8364 42.3105 53.3654V75.5136C42.3105 77.0426 43.5501 78.2821 45.0791 78.2821H86.6068C88.1359 78.2821 89.3754 77.0426 89.3754 75.5136V53.3654C89.3754 51.8364 88.1359 50.5969 86.6068 50.5969H45.0791ZM49.2293 53.3654H82.4556C82.4563 53.9089 82.5637 54.4471 82.7718 54.9492C82.9804 55.453 83.2863 55.9108 83.6719 56.2965C84.0576 56.6821 84.5154 56.988 85.0191 57.1967C85.5226 57.4053 86.062 57.5125 86.6068 57.5128V71.3609C86.0697 71.364 85.5382 71.4713 85.0418 71.677C84.5379 71.8856 84.0802 72.1915 83.6945 72.5772C83.309 72.9628 83.0031 73.4206 82.7943 73.9243C82.5857 74.4282 82.4783 74.9682 82.4783 75.5136H49.226C49.2194 74.9859 49.1123 74.4642 48.9103 73.9764C48.7016 73.4726 48.3957 73.0149 48.0101 72.6292C47.6244 72.2436 47.1666 71.9376 46.6628 71.729C46.1606 71.521 45.6226 71.4136 45.0791 71.4129V57.5182C45.6235 57.5179 46.1627 57.4105 46.6657 57.2021C47.1696 56.9934 47.6274 56.6875 48.013 56.3019C48.3986 55.9162 48.7045 55.4584 48.9132 54.9547C49.1219 54.4508 49.2293 53.9108 49.2293 53.3654Z" fill="#1CB5BD"/>
</svg>
