<svg width="140" height="139" viewBox="0 0 140 139" fill="none" xmlns="http://www.w3.org/2000/svg">
<circle cx="69.9981" cy="69.6712" r="69.213" fill="white"/>
<path fill-rule="evenodd" clip-rule="evenodd" d="M83.8395 58.597C83.8395 66.242 77.6419 72.4396 69.9969 72.4396C62.3519 72.4396 56.1543 66.242 56.1543 58.597C56.1543 50.952 62.3519 44.7544 69.9969 44.7544C77.6419 44.7544 83.8395 50.952 83.8395 58.597ZM81.071 58.597C81.071 64.7131 76.113 69.6711 69.9969 69.6711C63.8808 69.6711 58.9228 64.7131 58.9228 58.597C58.9228 52.4809 63.8808 47.5229 69.9969 47.5229C76.113 47.5229 81.071 52.4809 81.071 58.597Z" fill="#1CB5BD"/>
<path fill-rule="evenodd" clip-rule="evenodd" d="M61.5742 76.3919C61.5794 76.4022 61.5845 76.4123 61.5896 76.4224C61.6249 76.493 61.6594 76.5612 61.6931 76.6253H67.3186C68.574 76.625 69.2007 76.6252 69.8283 76.6253H69.8626C70.477 76.6255 71.1033 76.6256 72.3313 76.6253H77.9572C78.2731 76.0252 78.9925 75.0672 79.6885 75.2257C81.2522 75.5819 82.8275 76.0783 84.3411 76.6886L84.3872 76.6656L84.4023 76.6961L84.4126 76.7175C90.1094 79.0309 94.9154 82.9548 94.9154 87.0712V94.5879H45.082V87.0712C45.082 81.8452 52.8281 76.9294 60.3089 75.2257C60.9198 75.0866 61.2813 75.8078 61.5742 76.3919ZM82.0477 78.7832C81.4533 78.5755 80.851 78.3872 80.2462 78.2204L79.6284 79.3938H72.3313C71.0763 79.3941 70.4573 79.394 69.8459 79.3938C69.2201 79.3937 68.6023 79.3936 67.3193 79.3938H60.0219L59.449 78.3055C59.2823 78.3536 59.1159 78.4033 58.9498 78.4543C58.9407 78.5456 58.9335 78.6486 58.9292 78.764C58.9112 79.2416 58.9469 79.8079 59.0255 80.3852C59.104 80.9608 59.2207 81.513 59.3506 81.9582C59.3712 82.0289 59.3918 82.0955 59.412 82.1578C61.476 82.3992 63.0774 84.1538 63.0774 86.2823C63.0774 88.5759 61.2182 90.4351 58.9246 90.4351C56.631 90.4351 54.7718 88.5759 54.7718 86.2823C54.7718 84.8055 55.5429 83.5085 56.7043 82.7724L56.6928 82.7334C56.5199 82.1405 56.377 81.4525 56.2825 80.7593C56.225 80.3386 56.1838 79.9031 56.1659 79.4744C54.4542 80.2052 52.8595 81.0883 51.522 82.0641C48.8607 84.0058 47.8505 85.8212 47.8505 87.0712V91.8194H92.1468V87.0712C92.1468 85.8212 91.1367 84.0058 88.4754 82.0641C87.3897 81.272 86.1346 80.541 84.7851 79.903C84.7632 80.1908 84.7321 80.4783 84.6937 80.7593C84.6299 81.2277 84.5439 81.6936 84.4415 82.1295H85.2255C85.7499 82.1295 86.2291 82.4258 86.4636 82.8948L87.8479 85.6633C87.9441 85.8554 87.9941 86.0675 87.9941 86.2823V89.0508C87.9941 89.8154 87.3743 90.4351 86.6098 90.4351H83.8413V87.6666H85.2255V86.6091L84.3701 84.8981H80.544L79.6885 86.6091V87.6666H81.0728V90.4351H78.3043C77.5397 90.4351 76.92 89.8154 76.92 89.0508V86.2823C76.92 86.0675 76.97 85.8554 77.0662 85.6633L78.4504 82.8948C78.6849 82.4258 79.1642 82.1295 79.6885 82.1295H81.5733C81.5906 82.0754 81.6081 82.0184 81.6256 81.9582C81.7555 81.513 81.8722 80.9608 81.9507 80.3852C82.0283 79.8156 82.064 79.2567 82.0477 78.7832ZM60.3089 86.2823C60.3089 87.0772 59.6699 87.6869 58.9246 87.6869C58.1793 87.6869 57.5404 87.0772 57.5404 86.2823C57.5404 85.4875 58.1793 84.8777 58.9246 84.8777C59.6699 84.8777 60.3089 85.4875 60.3089 86.2823Z" fill="#1CB5BD"/>
</svg>
