<svg width="139" height="139" viewBox="0 0 139 139" fill="none" xmlns="http://www.w3.org/2000/svg">
<circle cx="69.2344" cy="69.6671" r="69.213" fill="white"/>
<mask id="mask0_2031_80" style="mask-type:alpha" maskUnits="userSpaceOnUse" x="41" y="50" width="56" height="41">
<path d="M67.8503 53.0559H42.9336V55.8244H67.8503V53.0559Z" fill="white"/>
<path fill-rule="evenodd" clip-rule="evenodd" d="M67.8517 58.593H44.3193V87.6625H42.935C42.1705 87.6625 41.5508 88.2822 41.5508 89.0467C41.5508 89.8112 42.1705 90.431 42.935 90.431H95.5369C96.3014 90.431 96.9212 89.8112 96.9212 89.0467C96.9212 88.2822 96.3014 87.6625 95.5369 87.6625H94.1526V58.593H89.9999V61.3615H91.3841V87.6625H87.2313V71.0513H76.1573V87.6625H47.0878V61.3615H67.8517V58.593ZM84.4628 87.6625H78.9258V73.8199H84.4628V87.6625Z" fill="white"/>
<path d="M90 55.8244V53.0559H95.537V55.8244H90Z" fill="white"/>
<path fill-rule="evenodd" clip-rule="evenodd" d="M51.2378 80.7411V71.0513H72.0017V80.7411H73.3859V83.5096H49.8535V80.7411H51.2378ZM54.0063 73.8198H69.2331V80.7411H54.0063V73.8198Z" fill="white"/>
<path d="M84.4656 50.2874H73.3916C71.8625 50.2874 70.623 51.5268 70.623 53.0559V64.1299C70.623 65.659 71.8625 66.8985 73.3916 66.8985H84.4656C85.9947 66.8985 87.2342 65.659 87.2342 64.1299V53.0559C87.2342 51.5268 85.9947 50.2874 84.4656 50.2874Z" fill="white"/>
</mask>
<g mask="url(#mask0_2031_80)">
<path d="M80.311 55.8244V54.4401H77.5425V55.8244H80.311ZM76.1582 57.2086H74.7739V59.9771H76.1582V57.2086ZM44.3202 54.4401V61.3614H47.0888V54.4401H44.3202ZM91.385 54.4401V61.3614H94.1536V54.4401H91.385ZM77.5425 55.8244V61.3614H80.311V55.8244H77.5425ZM76.1582 59.9771H81.6952V57.2086H76.1582V59.9771ZM67.8526 53.0558H70.6212V50.2873H67.8526V53.0558ZM42.936 53.0558V50.2873H40.1675V53.0558H42.936ZM42.936 55.8244H40.1675V58.5929H42.936V55.8244ZM67.8526 55.8244V58.5929H70.6212V55.8244H67.8526ZM67.8526 58.5929H70.6212V55.8244H67.8526V58.5929ZM44.3202 58.5929V55.8244H41.5517V58.5929H44.3202ZM44.3202 87.6623V90.4308H47.0888V87.6623H44.3202ZM94.1536 87.6623H91.385V90.4308H94.1536V87.6623ZM94.1536 58.5929H96.9221V55.8244H94.1536V58.5929ZM90.0008 58.5929V55.8244H87.2323V58.5929H90.0008ZM90.0008 61.3614H87.2323V64.1299H90.0008V61.3614ZM91.385 61.3614H94.1536V58.5929H91.385V61.3614ZM91.385 87.6623V90.4308H94.1536V87.6623H91.385ZM87.2323 87.6623H84.4638V90.4308H87.2323V87.6623ZM87.2323 71.0512H90.0008V68.2827H87.2323V71.0512ZM76.1582 71.0512V68.2827H73.3897V71.0512H76.1582ZM76.1582 87.6623V90.4308H78.9267V87.6623H76.1582ZM47.0888 87.6623H44.3202V90.4308H47.0888V87.6623ZM47.0888 61.3614V58.5929H44.3202V61.3614H47.0888ZM67.8526 61.3614V64.1299H70.6212V61.3614H67.8526ZM90.0008 53.0558V50.2873H87.2323V53.0558H90.0008ZM90.0008 55.8244H87.2323V58.5929H90.0008V55.8244ZM95.5378 53.0558H98.3063V50.2873H95.5378V53.0558ZM95.5378 55.8244V58.5929H98.3063V55.8244H95.5378ZM78.9267 87.6623H76.1582V90.4308H78.9267V87.6623ZM84.4638 87.6623V90.4308H87.2323V87.6623H84.4638ZM78.9267 73.8197V71.0512H76.1582V73.8197H78.9267ZM84.4638 73.8197H87.2323V71.0512H84.4638V73.8197ZM69.2369 73.8197H72.0054V71.0512H69.2369V73.8197ZM54.0101 73.8197V71.0512H51.2415V73.8197H54.0101ZM69.2369 80.741V83.5095H72.0054V80.741H69.2369ZM54.0101 80.741H51.2415V83.5095H54.0101V80.741ZM51.2415 80.741V83.5095H54.0101V80.741H51.2415ZM51.2415 71.0512V68.2827H48.473V71.0512H51.2415ZM72.0054 71.0512H74.7739V68.2827H72.0054V71.0512ZM72.0054 80.741H69.2369V83.5095H72.0054V80.741ZM73.3897 80.741H76.1582V77.9725H73.3897V80.741ZM73.3897 83.5095V86.2781H76.1582V83.5095H73.3897ZM49.8573 83.5095H47.0888V86.2781H49.8573V83.5095ZM49.8573 80.741V77.9725H47.0888V80.741H49.8573ZM67.8526 50.2873H42.936V55.8244H67.8526V50.2873ZM40.1675 53.0558V55.8244H45.7045V53.0558H40.1675ZM42.936 58.5929H67.8526V53.0558H42.936V58.5929ZM70.6212 55.8244V53.0558H65.0841V55.8244H70.6212ZM42.936 90.4308H44.3202V84.8938H42.936V90.4308ZM44.3202 89.0466C44.3202 89.8111 43.7005 90.4308 42.936 90.4308V84.8938C40.6425 84.8938 38.7832 86.753 38.7832 89.0466H44.3202ZM42.936 87.6623C43.7005 87.6623 44.3202 88.2821 44.3202 89.0466H38.7832C38.7832 91.3402 40.6425 93.1994 42.936 93.1994V87.6623ZM94.1536 89.0466C94.1536 88.2821 94.7733 87.6623 95.5378 87.6623V93.1994C97.8314 93.1994 99.6906 91.3402 99.6906 89.0466H94.1536ZM95.5378 90.4308C94.7733 90.4308 94.1536 89.8111 94.1536 89.0466H99.6906C99.6906 86.753 97.8314 84.8938 95.5378 84.8938V90.4308ZM94.1536 90.4308H95.5378V84.8938H94.1536V90.4308ZM87.2323 58.5929V61.3614H92.7693V58.5929H87.2323ZM90.0008 64.1299H91.385V58.5929H90.0008V64.1299ZM88.6165 61.3614V87.6623H94.1536V61.3614H88.6165ZM91.385 84.8938H87.2323V90.4308H91.385V84.8938ZM76.1582 84.8938H47.0888V90.4308H76.1582V84.8938ZM49.8573 87.6623V61.3614H44.3202V87.6623H49.8573ZM47.0888 64.1299H67.8526V58.5929H47.0888V64.1299ZM70.6212 61.3614V58.5929H65.0841V61.3614H70.6212ZM87.2323 53.0558V55.8244H92.7693V53.0558H87.2323ZM95.5378 50.2873H90.0008V55.8244H95.5378V50.2873ZM98.3063 55.8244V53.0558H92.7693V55.8244H98.3063ZM90.0008 58.5929H95.5378V53.0558H90.0008V58.5929ZM78.9267 90.4308H84.4638V84.8938H78.9267V90.4308ZM76.1582 73.8197V87.6623H81.6952V73.8197H76.1582ZM84.4638 71.0512H78.9267V76.5882H84.4638V71.0512ZM87.2323 87.6623V73.8197H81.6952V87.6623H87.2323ZM69.2369 71.0512H54.0101V76.5882H69.2369V71.0512ZM72.0054 80.741V73.8197H66.4684V80.741H72.0054ZM54.0101 83.5095H69.2369V77.9725H54.0101V83.5095ZM51.2415 73.8197V80.741H56.7786V73.8197H51.2415ZM73.3897 77.9725H72.0054V83.5095H73.3897V77.9725ZM76.1582 83.5095V80.741H70.6212V83.5095H76.1582ZM47.0888 80.741V83.5095H52.6258V80.741H47.0888ZM51.2415 77.9725H49.8573V83.5095H51.2415V77.9725ZM73.3897 53.0558H84.4638V47.5188H73.3897V53.0558ZM84.4638 53.0558V64.1299H90.0008V53.0558H84.4638ZM84.4638 64.1299H73.3897V69.6669H84.4638V64.1299ZM73.3897 64.1299V53.0558H67.8526V64.1299H73.3897ZM73.3897 64.1299H67.8526C67.8526 67.1879 70.3317 69.6669 73.3897 69.6669V64.1299ZM84.4638 64.1299V69.6669C87.5217 69.6669 90.0008 67.1879 90.0008 64.1299H84.4638ZM84.4638 53.0558H90.0008C90.0008 49.9978 87.5217 47.5188 84.4638 47.5188V53.0558ZM73.3897 47.5188C70.3317 47.5188 67.8526 49.9978 67.8526 53.0558H73.3897V47.5188ZM44.3202 61.3614H67.8526V55.8244H44.3202V61.3614ZM47.0888 87.6623V58.5929H41.5517V87.6623H47.0888ZM95.5378 87.6623H42.936V93.1994H95.5378V87.6623ZM91.385 58.5929V87.6623H96.9221V58.5929H91.385ZM90.0008 61.3614H94.1536V55.8244H90.0008V61.3614ZM90.0008 87.6623V71.0512H84.4638V87.6623H90.0008ZM87.2323 68.2827H76.1582V73.8197H87.2323V68.2827ZM73.3897 71.0512V87.6623H78.9267V71.0512H73.3897ZM48.473 71.0512V80.741H54.0101V71.0512H48.473ZM72.0054 68.2827H51.2415V73.8197H72.0054V68.2827ZM74.7739 80.741V71.0512H69.2369V80.741H74.7739ZM49.8573 86.2781H73.3897V80.741H49.8573V86.2781Z" fill="#1CB5BD"/>
</g>
</svg>
