<svg width="266" height="47" viewBox="0 0 266 47" fill="none" xmlns="http://www.w3.org/2000/svg">
<path d="M0.237557 36.5237V4.03235H8.26072L13.4932 18.484C13.8254 19.4142 14.1411 20.3943 14.4401 21.4242C14.7391 22.4541 15.0547 23.4673 15.3869 24.464H15.5862C15.9184 23.4673 16.2174 22.4541 16.4832 21.4242C16.7822 20.3943 17.0978 19.4142 17.4301 18.484L22.5629 4.03235H30.5362V36.5237H23.8586V24.6135C23.8586 23.5504 23.9084 22.371 24.0081 21.0753C24.1409 19.7465 24.2738 18.4176 24.4067 17.0887C24.5728 15.7598 24.7057 14.5804 24.8054 13.5505H24.6061L21.9649 21.2747L17.3304 33.6832H13.2939L8.65939 21.2747L6.06806 13.5505H5.86872C6.00161 14.5804 6.1345 15.7598 6.26739 17.0887C6.40028 18.4176 6.51656 19.7465 6.61622 21.0753C6.74911 22.371 6.81556 23.5504 6.81556 24.6135V36.5237H0.237557ZM48.6615 37.1217C46.3028 37.1217 44.1765 36.6067 42.2829 35.5768C40.3892 34.547 38.8942 33.0686 37.7979 31.1417C36.7015 29.2148 36.1534 26.8892 36.1534 24.165C36.1534 21.474 36.7015 19.1651 37.7979 17.2382C38.9274 15.3113 40.3892 13.8329 42.1832 12.803C43.9772 11.7399 45.8543 11.2084 47.8144 11.2084C50.1731 11.2084 52.1166 11.7399 53.6449 12.803C55.2063 13.8329 56.3691 15.2448 57.1332 17.0388C57.9305 18.7996 58.3292 20.8096 58.3292 23.0687C58.3292 23.6999 58.296 24.3311 58.2295 24.9623C58.1631 25.5603 58.0966 26.0088 58.0302 26.3078H43.2297C43.5619 28.1018 44.3094 29.4307 45.4722 30.2945C46.635 31.1251 48.0303 31.5403 49.6582 31.5403C51.419 31.5403 53.1964 30.9922 54.9904 29.8958L57.4322 34.331C56.1698 35.1948 54.7578 35.8758 53.1964 36.3742C51.6349 36.8725 50.1233 37.1217 48.6615 37.1217ZM43.1799 21.474H52.1C52.1 20.1119 51.7678 18.999 51.1034 18.1352C50.4721 17.2382 49.4256 16.7897 47.9639 16.7897C46.8343 16.7897 45.821 17.1883 44.924 17.9857C44.027 18.7498 43.4456 19.9126 43.1799 21.474ZM72.2117 37.1217C69.1552 37.1217 66.6968 35.9755 64.8363 33.6832C63.0091 31.3576 62.0955 28.1849 62.0955 24.165C62.0955 21.474 62.5772 19.1651 63.5407 17.2382C64.5373 15.2781 65.8164 13.7831 67.3778 12.7532C68.9725 11.7233 70.6336 11.2084 72.3612 11.2084C73.7233 11.2084 74.8695 11.4409 75.7997 11.906C76.7299 12.3711 77.6103 13.0023 78.4408 13.7997L78.1418 10.0124V1.59052H85.4673V36.5237H79.4873L78.989 34.0818H78.7897C77.9259 34.9456 76.9126 35.6765 75.7498 36.2745C74.5871 36.8393 73.4077 37.1217 72.2117 37.1217ZM74.1053 31.1417C74.9027 31.1417 75.617 30.9756 76.2482 30.6433C76.9126 30.3111 77.5438 29.7297 78.1418 28.8992V18.783C77.5106 18.185 76.8296 17.7697 76.0987 17.5372C75.401 17.3046 74.72 17.1883 74.0555 17.1883C72.8927 17.1883 71.8628 17.7531 70.9658 18.8827C70.0688 19.979 69.6203 21.7066 69.6203 24.0653C69.6203 26.4906 70.0024 28.2846 70.7665 29.4473C71.5638 30.5769 72.6768 31.1417 74.1053 31.1417ZM91.9577 36.5237V11.8063H99.2832V36.5237H91.9577ZM95.5956 8.16852C94.3664 8.16852 93.3697 7.81968 92.6056 7.12202C91.8415 6.42435 91.4594 5.49413 91.4594 4.33135C91.4594 3.16857 91.8415 2.23835 92.6056 1.54068C93.3697 0.843017 94.3664 0.494183 95.5956 0.494183C96.8248 0.494183 97.8215 0.843017 98.5856 1.54068C99.3497 2.23835 99.7317 3.16857 99.7317 4.33135C99.7317 5.49413 99.3497 6.42435 98.5856 7.12202C97.8215 7.81968 96.8248 8.16852 95.5956 8.16852Z" fill="#27BCB9"/>
<path d="M106.328 36.5237V4.03235H117.491C119.883 4.03235 122.042 4.36457 123.969 5.02902C125.929 5.66024 127.491 6.73996 128.653 8.26818C129.816 9.79641 130.398 11.8728 130.398 14.4973C130.398 17.0222 129.816 19.0986 128.653 20.7265C127.491 22.3544 125.946 23.567 124.019 24.3643C122.092 25.1285 119.982 25.5105 117.69 25.5105H113.654V36.5237H106.328ZM113.654 19.68H117.242C121.228 19.68 123.222 17.9525 123.222 14.4973C123.222 12.803 122.69 11.607 121.627 10.9094C120.564 10.2117 119.036 9.86285 117.042 9.86285H113.654V19.68ZM135.416 36.5237V11.8063H141.396L141.894 16.1418H142.094C142.991 14.4807 144.07 13.2515 145.333 12.4542C146.595 11.6236 147.858 11.2084 149.12 11.2084C149.818 11.2084 150.399 11.2582 150.864 11.3579C151.329 11.4243 151.728 11.5406 152.06 11.7067L150.864 18.0355C150.432 17.9026 150 17.803 149.569 17.7365C149.17 17.6701 148.705 17.6368 148.173 17.6368C147.243 17.6368 146.263 17.9857 145.233 18.6833C144.236 19.3478 143.406 20.5106 142.741 22.1717V36.5237H135.416ZM155.271 36.5237V11.8063H162.597V36.5237H155.271ZM158.909 8.16852C157.68 8.16852 156.683 7.81968 155.919 7.12202C155.155 6.42435 154.773 5.49413 154.773 4.33135C154.773 3.16857 155.155 2.23835 155.919 1.54068C156.683 0.843017 157.68 0.494183 158.909 0.494183C160.138 0.494183 161.135 0.843017 161.899 1.54068C162.663 2.23835 163.045 3.16857 163.045 4.33135C163.045 5.49413 162.663 6.42435 161.899 7.12202C161.135 7.81968 160.138 8.16852 158.909 8.16852ZM174.725 36.5237L166.403 11.8063H173.778L176.967 23.4673C177.299 24.6966 177.615 25.959 177.914 27.2547C178.246 28.5171 178.578 29.7962 178.911 31.0918H179.11C179.409 29.7962 179.708 28.5171 180.007 27.2547C180.339 25.959 180.671 24.6966 181.004 23.4673L184.243 11.8063H191.269L183.196 36.5237H174.725ZM200.384 37.1217C198.125 37.1217 196.331 36.4074 195.002 34.9788C193.673 33.5171 193.009 31.7397 193.009 29.6467C193.009 27.0553 194.105 25.0288 196.298 23.567C198.49 22.1052 202.029 21.1252 206.912 20.6268C206.846 19.5305 206.514 18.6667 205.916 18.0355C205.351 17.3711 204.387 17.0388 203.025 17.0388C201.995 17.0388 200.949 17.2382 199.886 17.6368C198.823 18.0355 197.693 18.5837 196.497 19.2813L193.856 14.4475C195.417 13.4841 197.079 12.7033 198.839 12.1054C200.633 11.5074 202.494 11.2084 204.421 11.2084C207.577 11.2084 210.002 12.122 211.696 13.9492C213.391 15.7764 214.238 18.5837 214.238 22.371V36.5237H208.258L207.759 33.9822H207.56C206.53 34.9124 205.417 35.6765 204.221 36.2745C203.059 36.8393 201.779 37.1217 200.384 37.1217ZM202.876 31.4407C203.706 31.4407 204.421 31.258 205.019 30.8925C205.65 30.4938 206.281 29.9789 206.912 29.3477V25.0122C204.321 25.3444 202.527 25.876 201.53 26.6068C200.534 27.3045 200.035 28.1351 200.035 29.0985C200.035 29.8958 200.284 30.4938 200.783 30.8925C201.314 31.258 202.012 31.4407 202.876 31.4407ZM231.198 37.1217C228.906 37.1217 226.83 36.6233 224.969 35.6267C223.142 34.5968 221.68 33.1184 220.584 31.1915C219.521 29.2314 218.989 26.8892 218.989 24.165C218.989 21.4076 219.587 19.0654 220.783 17.1385C221.979 15.2116 223.557 13.7498 225.517 12.7532C227.477 11.7233 229.587 11.2084 231.846 11.2084C233.374 11.2084 234.72 11.4575 235.883 11.9558C237.079 12.4542 238.142 13.0854 239.072 13.8495L235.633 18.5837C234.471 17.6202 233.358 17.1385 232.295 17.1385C230.534 17.1385 229.122 17.7697 228.059 19.0322C227.029 20.2946 226.514 22.0056 226.514 24.165C226.514 26.2912 227.029 28.0022 228.059 29.2978C229.122 30.5603 230.451 31.1915 232.045 31.1915C232.843 31.1915 233.624 31.0254 234.388 30.6932C235.152 30.3277 235.849 29.8958 236.481 29.3975L239.371 34.1815C238.142 35.2446 236.813 36.0087 235.384 36.4738C233.956 36.9057 232.56 37.1217 231.198 37.1217ZM246.437 46.1913C245.706 46.1913 245.058 46.1415 244.494 46.0418C243.962 45.9422 243.447 45.8259 242.949 45.693L244.245 40.1117C244.477 40.1449 244.743 40.1947 245.042 40.2612C245.341 40.3608 245.623 40.4107 245.889 40.4107C247.118 40.4107 248.065 40.1117 248.73 39.5137C249.394 38.9157 249.892 38.135 250.225 37.1715L250.573 35.8758L241.055 11.8063H248.431L251.969 22.4208C252.334 23.5504 252.666 24.6966 252.965 25.8593C253.264 27.0221 253.58 28.2181 253.912 29.4473H254.112C254.377 28.2846 254.643 27.1218 254.909 25.959C255.208 24.763 255.507 23.5836 255.806 22.4208L258.796 11.8063H265.822L257.251 36.7728C256.487 38.8326 255.64 40.5602 254.71 41.9555C253.779 43.3841 252.65 44.4472 251.321 45.1448C250.025 45.8425 248.397 46.1913 246.437 46.1913Z" fill="#F5971F"/>
</svg>
