<svg width="98" height="98" viewBox="0 0 98 98" fill="none" xmlns="http://www.w3.org/2000/svg">
<g id="blood_pressure">
<path id="Vector" d="M16.7386 38.8461C16.7386 33.4963 18.5244 28.372 21.4717 24.6215C24.4091 20.8832 28.4205 18.5894 32.9513 18.5894C39.2147 18.5894 44.073 22.6684 47.226 29.0903L49.038 32.7811L50.85 29.0903C54.0028 22.6688 58.861 18.5894 65.1247 18.5894C69.6559 18.5894 73.6673 20.8836 76.6047 24.6221C79.5518 28.3728 81.3374 33.4971 81.3374 38.8461C81.3374 39.6433 81.2986 40.4338 81.2237 41.2173C82.5415 42.243 83.7352 43.4209 84.7778 44.7248C85.1646 42.8185 85.3748 40.8574 85.3748 38.8461C85.3748 32.639 83.3135 26.6256 79.7793 22.1276C76.2355 17.6174 71.1312 14.5519 65.1247 14.5519C58.0517 14.5519 52.6733 18.5157 49.038 24.1081C45.4025 18.5154 40.024 14.5519 32.9513 14.5519C26.9454 14.5519 21.8411 17.6168 18.2971 22.127C14.7627 26.6246 12.7012 32.638 12.7012 38.8461C12.7012 52.6555 21.8566 63.7501 30.565 71.2162C34.9605 74.9845 39.3461 77.9191 42.6286 79.9107C44.272 80.9078 45.6445 81.6719 46.6109 82.1891C47.0942 82.4477 47.4763 82.6447 47.7406 82.7785C47.8726 82.8453 47.9751 82.8964 48.0462 82.9315L48.1287 82.9719L48.1518 82.9832L48.1608 82.9877L49.066 83.4233L49.9621 82.9642L49.9688 82.9606L49.9916 82.9489L50.0734 82.9063C50.144 82.8694 50.2462 82.8155 50.3776 82.7448C50.6408 82.6037 51.022 82.3958 51.5042 82.1239C52.4684 81.5802 53.8385 80.7792 55.4793 79.7412C56.6358 79.0098 57.9294 78.1589 59.312 77.1956C57.9568 76.5674 56.679 75.8002 55.497 74.9124C54.7303 75.426 54.0014 75.8988 53.3211 76.3291C51.7445 77.3264 50.4335 78.0925 49.5211 78.6071C49.3339 78.7126 49.1637 78.8075 49.0113 78.8915C48.8628 78.8138 48.6972 78.7264 48.5157 78.6293C47.6055 78.1419 46.2968 77.4138 44.723 76.4589C41.5708 74.5464 37.3769 71.7382 33.1929 68.1509C24.7422 60.9058 16.7386 50.8389 16.7386 38.8461Z" fill="#E9F7F8" fill-opacity="0.85"/>
<path id="Vector_2" d="M69.2297 63.001C71.4595 63.001 73.2671 61.1934 73.2671 58.9636C73.2671 56.7337 71.4595 54.9262 69.2297 54.9262C68.7506 54.9262 68.2912 55.0095 67.865 55.1625L63.2242 50.5217L60.3691 53.3766L65.2532 58.2607C65.2132 58.489 65.1922 58.7238 65.1922 58.9636C65.1922 61.1934 66.9998 63.001 69.2297 63.001Z" fill="#E9F7F8" fill-opacity="0.85"/>
<path id="Vector_3" fill-rule="evenodd" clip-rule="evenodd" d="M68.2176 75.1133C77.6943 75.1133 85.3767 67.4309 85.3767 57.9543C85.3767 48.4776 77.6943 40.7952 68.2176 40.7952C58.741 40.7952 51.0586 48.4776 51.0586 57.9543C51.0586 67.4309 58.741 75.1133 68.2176 75.1133ZM68.2176 71.0759C75.4646 71.0759 81.3393 65.2012 81.3393 57.9543C81.3393 50.7073 75.4646 44.8327 68.2176 44.8327C60.9707 44.8327 55.096 50.7073 55.096 57.9543C55.096 65.2012 60.9707 71.0759 68.2176 71.0759Z" fill="#E9F7F8" fill-opacity="0.85"/>
</g>
</svg>
