<svg width="98" height="98" viewBox="0 0 98 98" fill="none" xmlns="http://www.w3.org/2000/svg">
<g id="gastroenterology">
<path id="Vector" fill-rule="evenodd" clip-rule="evenodd" d="M79.3499 16.5707H18.7886C17.6736 16.5707 16.7698 17.4746 16.7698 18.5895V79.1508C16.7698 80.2657 17.6737 81.1695 18.7886 81.1695H79.3499C80.4648 81.1695 81.3686 80.2657 81.3686 79.1508V18.5895C81.3686 17.4745 80.4648 16.5707 79.3499 16.5707ZM18.7886 12.5333C15.4439 12.5333 12.7324 15.2448 12.7324 18.5895V79.1508C12.7324 82.4956 15.4439 85.2069 18.7886 85.2069H79.3499C82.6947 85.2069 85.406 82.4956 85.406 79.1508V18.5895C85.406 15.2448 82.6947 12.5333 79.3499 12.5333H18.7886Z" fill="#E9F7F8" fill-opacity="0.85"/>
<path id="Vector_2" fill-rule="evenodd" clip-rule="evenodd" d="M35.5747 14.2393C35.5747 14.5626 35.5762 21.8131 35.579 22.103C35.647 29.3859 36.5898 32.956 38.4413 34.8639C40.0676 36.5398 42.8092 37.3509 47.9577 37.5032C48.3653 33.3935 50.0043 30.1143 52.4128 27.778C55.1847 25.0893 58.8555 23.7678 62.4888 23.7678C66.1223 23.7678 69.7929 25.0893 72.565 27.778C75.3607 30.4897 77.1194 34.4721 77.1194 39.5485V56.3688C77.1194 61.1223 76.3301 66.1517 73.8848 70.0557C71.3481 74.1054 67.1518 76.737 60.9459 76.737C54.5601 76.737 50.1272 72.9364 46.2103 69.5569L46.0856 69.4491C42.0976 66.008 38.5118 62.9135 33.4268 62.2112C31.2914 62.2334 29.8073 62.8059 28.7406 63.5871C27.6333 64.3983 26.8386 65.536 26.2764 66.8518C25.1271 69.5415 25.0892 72.6409 25.1447 73.9726C25.1558 74.2366 25.1614 77.0978 25.1655 79.7865C25.1673 81.1546 25.1689 82.5093 25.1697 83.5219L25.1711 85.2037L21.1337 85.2081L21.1323 83.5257C21.1315 82.5134 21.1299 81.1594 21.128 79.7923C21.126 78.4251 21.1234 77.0457 21.1204 75.9822C21.1188 75.4501 21.1171 74.9987 21.1151 74.6678C21.1143 74.5021 21.1133 74.3687 21.1123 74.2714C21.1117 74.2056 21.1111 74.168 21.1109 74.1502C21.1107 74.1373 21.1107 74.1351 21.1109 74.1408C21.0479 72.631 21.0542 68.7978 22.5637 65.2653C23.3309 63.47 24.5193 61.6746 26.3549 60.3299C28.2101 58.9711 30.5909 58.1729 33.556 58.1729C34.353 58.1729 35.0901 58.1909 35.7905 58.2079C37.0662 58.2388 38.2209 58.2668 39.3982 58.1786C41.1167 58.0498 42.4674 57.6796 43.566 56.8561C45.6382 55.3029 47.6065 51.4969 47.8362 41.5402C42.4911 41.3876 38.3218 40.5381 35.5439 37.6758C32.4554 34.4933 31.609 29.3502 31.5418 22.1408C31.5387 21.8256 31.5373 14.5414 31.5373 14.2393H35.5747ZM42.7684 61.6768C44.8667 63.0588 46.7164 64.6577 48.438 66.1459C48.5754 66.2645 48.7119 66.3828 48.848 66.4999C52.9062 70.0016 56.2627 72.6996 60.9459 72.6996C65.8086 72.6996 68.6895 70.7439 70.4631 67.9124C72.328 64.9354 73.082 60.7902 73.082 56.3688V39.5485C73.082 35.4505 71.6877 32.5517 69.7539 30.6761C67.7966 28.7775 65.1614 27.8053 62.4888 27.8053C59.8164 27.8053 57.1812 28.7775 55.2239 30.6761C53.2901 32.5517 51.8958 35.4505 51.8958 39.5485C51.8958 51.0344 49.903 57.1521 45.9875 60.0867C44.967 60.8518 43.8765 61.3514 42.7684 61.6768Z" fill="#E9F7F8" fill-opacity="0.85"/>
<path id="Vector_3" d="M75.0972 51.017C65.9226 58.9625 60.5705 43.0716 49.1022 51.017L46.0439 57.1335L38.3984 60.9564C38.3984 60.9564 52.9251 74.7183 61.3352 74.7183C69.7454 74.7183 76.6264 67.0729 75.0972 51.017Z" fill="#E9F7F8" fill-opacity="0.85"/>
</g>
</svg>
