<svg width="98" height="98" viewBox="0 0 98 98" fill="none" xmlns="http://www.w3.org/2000/svg">
<g id="neurology">
<path id="Vector" fill-rule="evenodd" clip-rule="evenodd" d="M60.1413 46.5952C62.4818 46.5952 64.768 45.9589 66.7009 44.7695C68.6635 45.9567 70.9798 46.5791 73.3433 46.5545L80.8511 44.092C82.9667 42.5201 84.419 40.3409 84.9652 37.9194C85.5113 35.4978 85.1178 32.9806 83.8509 30.7891C82.584 28.5976 80.5202 26.8648 78.0053 25.8806C77.431 23.5363 75.9846 21.4393 73.9059 19.9377L66.5772 17.6261H65.7521C64.122 15.4824 61.6748 13.9533 58.8756 13.3295L43.1634 12.5333C40.5516 12.7289 38.0887 13.7107 36.1714 15.3208C35.2654 15.1283 34.338 15.0285 33.4071 15.0233C31.1532 15.0275 28.9488 15.6196 27.0601 16.728C25.1714 17.8365 23.679 19.414 22.7631 21.2701L16.793 25.0816C15.3075 26.8956 14.5078 29.092 14.5118 31.3465C14.4971 32.2894 14.6361 33.229 14.9243 34.1354C13.358 35.9671 12.5158 38.2182 12.5315 40.5308C12.5277 43.2129 13.6646 45.7944 15.7082 47.7443C15.8731 49.6645 16.6176 51.5076 17.8611 53.0739C19.1046 54.6402 20.7997 55.8704 22.7631 56.6309C25.0252 57.9091 26.9408 59.6282 28.3686 61.6615C29.7967 63.6949 30.7007 65.991 31.0144 68.3808H46.4284V57.2258C46.4256 55.2452 47.0387 53.3036 48.1982 51.621C49.3576 49.9386 51.017 48.5827 52.9882 47.7069C54.0967 47.3248 54.3694 46.8102 54.7035 46.1798C54.9262 45.7597 55.1763 45.2879 55.7189 44.7695C56.1905 45.0596 56.5559 45.317 56.8726 45.5401C57.8549 46.2315 58.3715 46.5952 60.1413 46.5952ZM69.1198 41.4915C70.1961 42.0737 71.4372 42.4244 72.7343 42.4932L78.902 40.4703C80.0283 39.4902 80.7435 38.2749 81.0265 37.0195C81.3445 35.61 81.1252 34.1293 80.3555 32.798C79.5785 31.4539 78.2579 30.3032 76.5341 29.6288L74.5824 28.8651L74.0838 26.8294C73.7917 25.637 73.0908 24.4849 72.0009 23.5585L65.9556 21.6516H63.7502L62.5384 20.0581C61.5779 18.795 60.0963 17.7986 58.2983 17.331L43.2358 16.5678C41.5165 16.7412 39.9534 17.4052 38.7676 18.401L37.259 19.6677L35.3322 19.2582C34.7009 19.1241 34.0525 19.0536 33.3999 19.049C31.8453 19.0544 30.3524 19.4654 29.1037 20.1983C27.8533 20.932 26.9299 21.9377 26.3836 23.0448L25.8852 24.0551L19.5756 28.0835C18.8862 29.094 18.5472 30.2176 18.5492 31.3277L18.5492 31.3627L18.5487 31.3978C18.5409 31.9002 18.6147 32.4055 18.7718 32.8999L19.4526 35.0401L17.993 36.7474C17.029 37.8748 16.56 39.1942 16.5688 40.4917L16.5689 40.508L16.5689 40.5246C16.5668 42.037 17.204 43.5793 18.4953 44.8113L19.6001 45.8655L19.7308 47.387C19.8252 48.4858 20.2534 49.5821 21.0232 50.5517C21.7965 51.5259 22.8907 52.3387 24.2216 52.8543L24.4943 52.96L24.7493 53.104C25.0444 53.2707 25.3351 53.4439 25.6212 53.6234L25.6087 53.6327C31.0969 56.9811 33.4257 61.8543 34.2162 64.3462H35.4517V49.6225L31.0039 45.6689L27.9849 48.688C27.1966 49.4763 25.9183 49.4763 25.13 48.688C24.3417 47.8997 24.3417 46.6215 25.13 45.8332L28.7471 42.2158L27.6619 36.2467L22.7445 33.7881C21.7473 33.2895 21.3431 32.0769 21.8417 31.0796C22.3404 30.0826 23.553 29.6782 24.5502 30.1769L29.3483 32.5761L35.2256 28.836L33.3977 23.961C33.006 22.9172 33.5351 21.7536 34.579 21.362C35.6229 20.9705 36.7865 21.4994 37.1779 22.5433L39.1423 27.7817H41.3154L42.3535 25.7054L40.7076 21.8648C40.2683 20.8401 40.7431 19.6533 41.7678 19.2141C42.7925 18.775 43.9793 19.2497 44.4186 20.2744L45.8359 23.5815L51.4641 24.6048L51.4873 24.586L55.1248 21.6759C55.9955 20.9794 57.2659 21.1205 57.9623 21.9912C58.6588 22.8617 58.5177 24.132 57.647 24.8285L55.2155 26.7739L57.9107 30.2392L58.9457 28.1697C59.2874 27.4857 59.9865 27.0537 60.7512 27.0537H65.1163C66.2312 27.0537 67.135 27.9575 67.135 29.0724C67.135 30.1874 66.2312 31.0911 65.1163 31.0911H61.9988L61.4575 32.1736L64.8268 32.9223C64.9879 32.9582 65.1439 33.0136 65.2917 33.0874L68.2017 34.5425C69.1989 35.0409 69.603 36.2536 69.1046 37.2508C68.606 38.2481 67.3934 38.6522 66.3961 38.1536L63.7084 36.8097L57.4032 35.4086C56.9447 35.3066 56.5359 35.048 56.2476 34.6774L51.6284 28.7383L46.0299 27.7205C45.9488 27.7873 45.8616 27.8483 45.7689 27.9028L44.5817 30.2768V31.4188H46.9283C47.2416 31.4188 47.5506 31.4919 47.831 31.632L53.6512 34.5421C54.6484 35.0407 55.0526 36.2532 54.554 37.2504C54.0553 38.2477 52.8427 38.6518 51.8456 38.1532L46.4516 35.4562H44.5817V38.5307C44.5817 39.6454 43.6779 40.5494 42.563 40.5494C41.4481 40.5494 40.5443 39.6454 40.5443 38.5307V33.453V33.4375V33.4221V31.8191H38.0583L31.6965 35.8674L32.7842 41.8497L38.8116 47.2071C39.2424 47.5903 39.4891 48.1394 39.4891 48.7159V64.3462H42.3912V57.1474C42.3912 51.6933 45.4379 48.3457 47.1019 46.7608C48.4328 45.4928 50.4321 44.4239 51.2655 44.048C51.431 43.6774 51.9956 42.7155 52.9293 41.8323C53.8629 40.9491 54.8323 40.0292 55.2003 39.6795C57.6993 41.1078 59.6399 42.5419 59.6399 42.5419C59.6399 42.5419 62.2263 42.4 63.4014 41.927C64.3413 41.5485 65.9799 40.4969 66.6818 40.0185L69.1198 41.4915Z" fill="#E9F7F8" fill-opacity="0.85"/>
<path id="Vector_2" d="M30.6973 77.1321H46.847V73.0947H30.6973V77.1321Z" fill="#E9F7F8" fill-opacity="0.85"/>
<path id="Vector_3" d="M46.847 85.2069H30.6973V81.1695H46.847V85.2069Z" fill="#E9F7F8" fill-opacity="0.85"/>
</g>
</svg>
