<svg width="98" height="98" viewBox="0 0 98 98" fill="none" xmlns="http://www.w3.org/2000/svg">
<g id="opthalmology">
<path id="Vector" fill-rule="evenodd" clip-rule="evenodd" d="M79.3167 16.8207H18.7554C17.6404 16.8207 16.7366 17.7246 16.7366 18.8395V79.4008C16.7366 80.5157 17.6405 81.4195 18.7554 81.4195H79.3167C80.4316 81.4195 81.3354 80.5157 81.3354 79.4008V18.8395C81.3354 17.7245 80.4316 16.8207 79.3167 16.8207ZM18.7554 12.7833C15.4107 12.7833 12.6992 15.4948 12.6992 18.8395V79.4008C12.6992 82.7456 15.4107 85.4569 18.7554 85.4569H79.3167C82.6615 85.4569 85.3728 82.7456 85.3728 79.4008V18.8395C85.3728 15.4948 82.6615 12.7833 79.3167 12.7833H18.7554Z" fill="#E9F7F8" fill-opacity="0.85"/>
<path id="Vector_2" fill-rule="evenodd" clip-rule="evenodd" d="M77.2993 49.9276C77.2993 49.9276 61.7552 32.9705 49.1116 32.9705C36.4682 32.9705 20.7754 49.9276 20.7754 49.9276C20.7754 49.9276 36.4682 66.8848 49.1116 66.8848C61.7552 66.8848 77.2993 49.9276 77.2993 49.9276ZM32.666 44.6477C30.2088 46.5402 28.073 48.4419 26.4984 49.9276C28.073 51.4134 30.2088 53.315 32.666 55.2076C35.2881 57.2275 38.1995 59.1776 41.1246 60.6086C44.085 62.0571 46.8043 62.8474 49.1116 62.8474C51.4176 62.8474 54.1259 62.0581 57.0694 60.6117C59.9784 59.1822 62.87 57.2342 65.4727 55.2159C67.9177 53.3195 70.0402 51.4142 71.6019 49.9276C70.0402 48.4411 67.9177 46.5358 65.4727 44.6394C62.87 42.6211 59.9784 40.6731 57.0694 39.2436C54.1259 37.7972 51.4176 37.0079 49.1116 37.0079C46.8043 37.0079 44.085 37.7982 41.1246 39.2466C38.1995 40.6777 35.2881 42.6278 32.666 44.6477Z" fill="#E9F7F8" fill-opacity="0.85"/>
<path id="Vector_3" fill-rule="evenodd" clip-rule="evenodd" d="M49.0363 61.4343C55.3912 61.4343 60.5429 56.2825 60.5429 49.9276C60.5429 43.5727 55.3912 38.421 49.0363 38.421C42.6814 38.421 37.5296 43.5727 37.5296 49.9276C37.5296 56.2825 42.6814 61.4343 49.0363 61.4343ZM49.0363 65.4717C57.621 65.4717 64.5803 58.5124 64.5803 49.9276C64.5803 41.3428 57.621 34.3835 49.0363 34.3835C40.4515 34.3835 33.4922 41.3428 33.4922 49.9276C33.4922 58.5124 40.4515 65.4717 49.0363 65.4717Z" fill="#E9F7F8" fill-opacity="0.85"/>
<path id="Vector_4" fill-rule="evenodd" clip-rule="evenodd" d="M49.0362 56.993C52.9384 56.993 56.1017 53.8297 56.1017 49.9276C56.1017 48.1729 55.4622 46.5676 54.4033 45.3322C54.5846 45.6447 54.6886 46.0076 54.6886 46.395C54.6886 47.5657 53.7396 48.5147 52.5689 48.5147C51.3983 48.5147 50.4493 47.5657 50.4493 46.395C50.4493 45.2244 51.3983 44.2754 52.5689 44.2754C52.9563 44.2754 53.3193 44.3793 53.6318 44.5608C52.3963 43.5018 50.7911 42.8621 49.0362 42.8621C45.134 42.8621 41.9707 46.0254 41.9707 49.9276C41.9707 53.8297 45.134 56.993 49.0362 56.993Z" fill="#E9F7F8" fill-opacity="0.85"/>
</g>
</svg>
