<svg width="98" height="98" viewBox="0 0 98 98" fill="none" xmlns="http://www.w3.org/2000/svg">
<g id="orthopaedics">
<path id="Vector" fill-rule="evenodd" clip-rule="evenodd" d="M79.3499 16.8207H18.7886C17.6736 16.8207 16.7698 17.7246 16.7698 18.8395V79.4008C16.7698 80.5157 17.6737 81.4195 18.7886 81.4195H79.3499C80.4648 81.4195 81.3686 80.5157 81.3686 79.4008V18.8395C81.3686 17.7245 80.4648 16.8207 79.3499 16.8207ZM18.7886 12.7833C15.4439 12.7833 12.7324 15.4948 12.7324 18.8395V79.4008C12.7324 82.7456 15.4439 85.4569 18.7886 85.4569H79.3499C82.6947 85.4569 85.406 82.7456 85.406 79.4008V18.8395C85.406 15.4948 82.6947 12.7833 79.3499 12.7833H18.7886Z" fill="#E9F7F8" fill-opacity="0.85"/>
<path id="Vector_2" fill-rule="evenodd" clip-rule="evenodd" d="M37.8001 22.837C36.5836 22.6093 35.4444 23.5325 35.4444 24.7701C35.4444 25.8487 34.5699 26.7232 33.4913 26.7232H32.9211C31.8061 26.7232 30.9023 27.627 30.9023 28.7419V30.5063C30.9023 31.621 31.8061 32.525 32.9211 32.525H33.4257C34.5407 32.525 35.4444 33.4288 35.4444 34.5437V35.3068C35.4444 36.23 36.0737 37.0386 36.9714 37.254C46.3992 39.5174 52.1771 39.5196 61.1919 37.2652C62.0793 37.0433 62.697 36.2396 62.697 35.3248V34.5437C62.697 33.4288 63.6008 32.525 64.7158 32.525H65.2204C66.3354 32.525 67.2391 31.621 67.2391 30.5063V28.7419C67.2391 27.627 66.3354 26.7232 65.2204 26.7232H64.6475C63.5703 26.7232 62.697 25.8501 62.697 24.773C62.697 23.5349 61.5561 22.6127 60.3396 22.8423C51.8768 24.4389 46.2615 24.4199 37.8001 22.837ZM42.0053 28.4034C42.0053 27.2885 41.1015 26.3847 39.9865 26.3847C38.8716 26.3847 37.9678 27.2885 37.9678 28.4034V32.9257C37.9678 34.0407 38.8716 34.9444 39.9865 34.9444C41.1015 34.9444 42.0053 34.0407 42.0053 32.9257V28.4034Z" fill="#E9F7F8" fill-opacity="0.85"/>
<path id="Vector_3" fill-rule="evenodd" clip-rule="evenodd" d="M37.8001 41.0055C36.5836 40.7778 35.4444 41.7009 35.4444 42.9386C35.4444 44.0172 34.5699 44.8917 33.4913 44.8917H32.9211C31.8061 44.8917 30.9023 45.7955 30.9023 46.9104V48.6748C30.9023 49.7895 31.8061 50.6935 32.9211 50.6935H33.4257C34.5407 50.6935 35.4444 51.5972 35.4444 52.7122V53.4753C35.4444 54.3984 36.0737 55.2071 36.9714 55.4225C46.3992 57.6859 52.1771 57.6881 61.1919 55.4336C62.0793 55.2117 62.697 54.4081 62.697 53.4932V52.7122C62.697 51.5972 63.6008 50.6935 64.7158 50.6935H65.2204C66.3354 50.6935 67.2391 49.7895 67.2391 48.6748V46.9104C67.2391 45.7955 66.3354 44.8917 65.2204 44.8917H64.6475C63.5703 44.8917 62.697 44.0186 62.697 42.9414C62.697 41.7033 61.5561 40.7812 60.3396 41.0107C51.8768 42.6073 46.2615 42.5883 37.8001 41.0055ZM42.0053 46.5719C42.0053 45.4569 41.1015 44.5532 39.9865 44.5532C38.8716 44.5532 37.9678 45.4569 37.9678 46.5719V51.0942C37.9678 52.2091 38.8716 53.1129 39.9865 53.1129C41.1015 53.1129 42.0053 52.2091 42.0053 51.0942V46.5719Z" fill="#E9F7F8" fill-opacity="0.85"/>
<path id="Vector_4" fill-rule="evenodd" clip-rule="evenodd" d="M37.8001 59.1739C36.5836 58.9462 35.4444 59.8694 35.4444 61.107C35.4444 62.1856 34.5699 63.0601 33.4913 63.0601H32.9211C31.8061 63.0601 30.9023 63.9639 30.9023 65.0789V66.8432C30.9023 67.9579 31.8061 68.8619 32.9211 68.8619H33.4257C34.5407 68.8619 35.4444 69.7657 35.4444 70.8806V71.6437C35.4444 72.5669 36.0737 73.3756 36.9714 73.591C46.3992 75.8543 52.1771 75.8566 61.1919 73.6021C62.0793 73.3802 62.697 72.5766 62.697 71.6617V70.8806C62.697 69.7657 63.6008 68.8619 64.7158 68.8619H65.2204C66.3354 68.8619 67.2391 67.9579 67.2391 66.8432V65.0789C67.2391 63.9639 66.3354 63.0601 65.2204 63.0601H64.6475C63.5703 63.0601 62.697 62.1871 62.697 61.1099C62.697 59.8718 61.5561 58.9497 60.3396 59.1792C51.8768 60.7758 46.2615 60.7568 37.8001 59.1739ZM42.0053 64.7403C42.0053 63.6254 41.1015 62.7216 39.9865 62.7216C38.8716 62.7216 37.9678 63.6254 37.9678 64.7403V69.2626C37.9678 70.3776 38.8716 71.2814 39.9865 71.2814C41.1015 71.2814 42.0053 70.3776 42.0053 69.2626V64.7403Z" fill="#E9F7F8" fill-opacity="0.85"/>
</g>
</svg>
