<svg width="98" height="98" viewBox="0 0 98 98" fill="none" xmlns="http://www.w3.org/2000/svg">
<g id="pediatric_surgery">
<path id="Vector" fill-rule="evenodd" clip-rule="evenodd" d="M52.662 22.8769C52.662 29.5663 47.2392 34.9892 40.5498 34.9892C33.8604 34.9892 28.4375 29.5663 28.4375 22.8769C28.4375 16.1875 33.8604 10.7646 40.5498 10.7646C47.2392 10.7646 52.662 16.1875 52.662 22.8769ZM48.6246 22.8769C48.6246 27.3365 45.0093 30.9518 40.5498 30.9518C36.09 30.9518 32.4749 27.3365 32.4749 22.8769C32.4749 18.4173 36.09 14.8021 40.5498 14.8021C45.0093 14.8021 48.6246 18.4173 48.6246 22.8769Z" fill="#E9F7F8" fill-opacity="0.85"/>
<path id="Vector_2" fill-rule="evenodd" clip-rule="evenodd" d="M63.7664 36.9978C64.4394 35.6519 65.1795 32.3547 62.757 29.9323C60.3346 27.5098 57.7103 27.9239 55.6916 28.9229C54.7597 29.3842 53.8277 30.5177 52.7192 31.8658C50.2261 34.8981 46.8397 39.0165 40.5512 39.0165C34.2629 39.0165 30.8765 34.8981 28.3832 31.8658C27.2748 30.5177 26.3429 29.3842 25.4109 28.9229C23.3922 27.9239 20.7679 27.5098 18.3454 29.9323C15.9229 32.3547 16.6631 35.6519 17.336 36.9978C20.261 43.2655 23.8831 47.1402 28.439 49.1201V59.2137C28.439 59.5979 28.4882 60.0307 28.5914 60.4938C24.7827 63.8943 22.383 68.89 22.383 74.4465C22.383 76.4698 22.7613 79.5032 23.8528 82.1083C24.9167 84.6474 26.9976 87.4759 30.6821 87.4759C34.317 87.4759 37.1868 84.4751 37.1868 80.8694C37.1868 79.3096 36.5935 77.9554 36.1769 77.0048L36.121 76.877C35.6488 75.7956 35.3924 75.1355 35.3924 74.4465C35.3924 73.7601 35.7538 72.6862 36.4837 71.5004C37.1533 70.4127 37.9646 69.5043 38.5967 69.0077C39.2415 69.1898 39.9012 69.3073 40.5512 69.3073C41.2014 69.3073 41.8612 69.1898 42.5059 69.0077C43.138 69.5043 43.9493 70.4125 44.6189 71.5004C45.3491 72.6862 45.7102 73.7601 45.7102 74.4465C45.7102 75.1179 45.4529 75.791 44.9783 76.8905L44.9187 77.0282C44.5059 77.9813 43.9158 79.3425 43.9158 80.8694C43.9158 84.4751 46.7858 87.4759 50.4207 87.4759C54.0919 87.4759 56.1532 84.4686 57.1991 81.9656C58.2963 79.3403 58.7198 76.3166 58.7198 74.4465C58.7198 68.89 56.32 63.8941 52.5111 60.4936C52.6142 60.0307 52.6635 59.5979 52.6635 59.2137V49.1201C57.2195 47.1402 60.8415 43.2655 63.7664 36.9978ZM20.9715 35.2409L20.9948 35.2904C23.6457 40.971 26.6639 43.9466 30.0483 45.4172L32.4764 46.4726V53.1576H48.6261V46.4726L51.0544 45.4172C54.4385 43.9466 57.4567 40.971 60.1079 35.2904L60.1309 35.2409L60.1553 35.192C60.2268 35.0493 60.4012 34.5406 60.3865 33.9736C60.3742 33.5012 60.245 33.1299 59.9022 32.7872C59.5992 32.4841 59.3656 32.3438 59.2186 32.2758C59.0751 32.2094 58.9506 32.1819 58.8254 32.1743C58.5486 32.1573 58.1082 32.2332 57.491 32.5372C57.4955 32.5352 57.4991 32.5332 57.5023 32.5318C57.5092 32.5286 57.5132 32.5271 57.5138 32.5282C57.5153 32.53 57.5021 32.5425 57.4723 32.5712C57.3661 32.6727 57.0481 32.9765 56.4207 33.7252C56.2649 33.9114 56.0917 34.1223 55.9031 34.3517C55.2022 35.205 54.2916 36.3132 53.2873 37.3462C50.5941 40.1165 46.5886 43.0539 40.5512 43.0539C34.5141 43.0539 30.5083 40.1165 27.8152 37.3462C26.8111 36.3132 25.9004 35.205 25.1995 34.3519C25.0112 34.1227 24.8376 33.9112 24.6817 33.7252C24.0543 32.9765 23.7364 32.6727 23.6302 32.5712C23.6245 32.5657 23.6195 32.5609 23.615 32.5566C23.5959 32.5382 23.5874 32.5296 23.5886 32.5282C23.5896 32.5267 23.5963 32.5298 23.6084 32.5358C22.9931 32.233 22.5534 32.1573 22.277 32.1743C22.1521 32.1819 22.0273 32.2094 21.8838 32.2758C21.7368 32.3438 21.5033 32.4841 21.2003 32.7872C20.8575 33.1299 20.7283 33.5012 20.716 33.9736C20.7013 34.5406 20.8759 35.0493 20.9473 35.192L20.9715 35.2409ZM33.2306 61.2157C32.6136 60.2602 32.4764 59.4537 32.4764 59.2137V57.195H48.6261V59.2137C48.6261 59.4537 48.4888 60.2602 47.8719 61.2157C47.2982 62.1041 46.3889 62.9923 45.0233 63.5749C44.6385 63.739 44.2061 63.9448 43.8395 64.1192L43.6304 64.2185C43.182 64.4309 42.7661 64.6228 42.3519 64.791C41.4728 65.1477 40.8966 65.2698 40.5512 65.2698C40.2058 65.2698 39.6297 65.1477 38.7507 64.791C38.3363 64.6228 37.9206 64.4309 37.4721 64.2185L37.2633 64.1194C36.8967 63.945 36.4639 63.739 36.0792 63.5749C34.7135 62.9923 33.8043 62.1041 33.2306 61.2157ZM26.4204 74.4465C26.4204 70.4809 27.97 66.8959 30.475 64.2827C31.4305 65.4604 32.7507 66.5445 34.4951 67.2885L34.5639 67.3182C34.0116 67.9509 33.4928 68.6574 33.0457 69.3838C32.1568 70.8275 31.355 72.667 31.355 74.4465C31.355 76.0556 31.9572 77.4322 32.3811 78.4018L32.4209 78.4926C32.9011 79.5922 33.1494 80.223 33.1494 80.8694C33.1494 82.3312 32.0024 83.4384 30.6821 83.4384C29.4941 83.4384 28.4349 82.5966 27.5766 80.5483C26.7461 78.5657 26.4204 76.0938 26.4204 74.4465ZM48.0572 69.3838C47.61 68.6574 47.091 67.9509 46.5387 67.318L46.6074 67.2885C48.3519 66.5445 49.6722 65.4602 50.6276 64.2825C53.1326 66.8959 54.6824 70.4809 54.6824 74.4465C54.6824 75.8707 54.3334 78.3523 53.474 80.4088C52.5636 82.5873 51.4846 83.4384 50.4207 83.4384C49.1005 83.4384 47.9532 82.3312 47.9532 80.8694C47.9532 80.2495 48.2011 79.6124 48.6852 78.4906L48.7252 78.3979C49.1471 77.4225 49.7477 76.033 49.7477 74.4465C49.7477 72.667 48.946 70.8275 48.0572 69.3838Z" fill="#E9F7F8" fill-opacity="0.85"/>
<path id="Vector_3" fill-rule="evenodd" clip-rule="evenodd" d="M72.6596 76.9784L69.4297 79.4008V61.2324C69.4297 59.2749 70.3583 57.5343 71.7992 56.4273C70.3759 55.5348 69.4297 53.9521 69.4297 52.1482V23.8863C69.4297 21.099 71.689 18.8395 74.4765 18.8395C77.2637 18.8395 79.5232 21.099 79.5232 23.8863V52.1482C79.5232 53.5549 78.9477 54.8272 78.0193 55.7423C80.1196 56.7208 81.6245 58.8802 81.2083 61.5324C80.4072 66.6375 78.3027 70.4735 76.395 73.0336C75.4414 74.3135 74.5334 75.2796 73.8533 75.9341C73.5129 76.2615 73.2285 76.512 73.0224 76.6859C72.9192 76.7729 72.8357 76.8405 72.7743 76.8893L72.7343 76.9208L72.6992 76.9481L72.6748 76.9669L72.6661 76.9735L72.6624 76.9761L72.6596 76.9784ZM71.4484 75.3634C72.6596 76.9784 72.6588 76.979 72.6596 76.9784L71.4484 75.3634ZM75.4858 44.2466L73.4671 46.2653V41.8815L75.4858 39.8627V44.2466ZM73.4671 36.1717L75.4858 34.153V23.8863C75.4858 23.3289 75.0338 22.8769 74.4765 22.8769C73.9189 22.8769 73.4671 23.3289 73.4671 23.8863V36.1717ZM73.4671 51.975L75.4858 49.9563V52.1482C75.4858 52.7056 75.0338 53.1576 74.4765 53.1576C73.9189 53.1576 73.4671 52.7056 73.4671 52.1482V51.975ZM73.4671 70.1951C74.9858 68.0488 76.5846 64.9545 77.2197 60.9066C77.3394 60.1435 76.7039 59.2137 75.4858 59.2137C74.3709 59.2137 73.4671 60.1175 73.4671 61.2324V70.1951Z" fill="#E9F7F8" fill-opacity="0.85"/>
</g>
</svg>
