<svg width="98" height="98" viewBox="0 0 98 98" fill="none" xmlns="http://www.w3.org/2000/svg">
<g id="surgical_sterilization">
<path id="Vector" fill-rule="evenodd" clip-rule="evenodd" d="M49.3639 73.0946C50.9916 73.0946 52.5066 73.5761 53.7746 74.4045L57.4418 8.49585L59.4575 8.60799L61.4729 8.49585L65.1401 74.4045C66.4083 73.5761 67.9233 73.0946 69.551 73.0946C74.0106 73.0946 77.6259 76.7099 77.6259 81.1695C77.6259 85.629 74.0106 89.2443 69.551 89.2443C65.1117 89.2443 61.5091 85.6619 61.4764 81.2304L61.025 73.1192H57.8897L57.4386 81.2304C57.4056 85.6619 53.8031 89.2443 49.3639 89.2443C44.9042 89.2443 41.2891 85.629 41.2891 81.1695C41.2891 76.7099 44.9042 73.0946 49.3639 73.0946ZM59.4575 44.9453L60.8003 69.0818H58.1144L59.4575 44.9453ZM59.4575 38.8468C60.5724 38.8468 61.4762 37.9442 61.4762 36.8309C61.4762 35.7176 60.5724 34.815 59.4575 34.815C58.3425 34.815 57.4388 35.7176 57.4388 36.8309C57.4388 37.9442 58.3425 38.8468 59.4575 38.8468ZM49.3639 77.132C47.134 77.132 45.3265 78.9396 45.3265 81.1695C45.3265 83.3993 47.134 85.2069 49.3639 85.2069C51.5938 85.2069 53.4013 83.3993 53.4013 81.1695C53.4013 78.9396 51.5938 77.132 49.3639 77.132ZM65.5136 81.1695C65.5136 78.9396 67.3212 77.132 69.551 77.132C71.7809 77.132 73.5884 78.9396 73.5884 81.1695C73.5884 83.3993 71.7809 85.2069 69.551 85.2069C67.3212 85.2069 65.5136 83.3993 65.5136 81.1695Z" fill="#E9F7F8" fill-opacity="0.85"/>
<path id="Vector_2" fill-rule="evenodd" clip-rule="evenodd" d="M33.2145 8.96783L30.1572 10.8022L31.1958 12.5333C30.1572 10.8022 30.1543 10.8039 30.1543 10.8039L30.1513 10.8057L30.1448 10.8097L30.1299 10.8188L30.0928 10.8421C30.0647 10.86 30.0302 10.8824 29.9896 10.9097C29.9087 10.9643 29.8035 11.0384 29.6773 11.1338C29.4252 11.3248 29.0899 11.6011 28.6976 11.9783C27.912 12.7339 26.904 13.8886 25.8805 15.5623C23.8289 18.9181 21.7587 24.2888 21.2308 32.5857C21.07 35.1144 22.5327 37.2453 24.6198 38.2153C23.6945 39.1302 23.1209 40.4004 23.1209 41.8046V84.1975C23.1209 86.9847 25.3805 89.2443 28.1677 89.2443C30.955 89.2443 33.2145 86.9847 33.2145 84.1975V41.8046C33.2145 40.0007 32.2681 38.418 30.8447 37.5255C32.2857 36.4185 33.2145 34.6779 33.2145 32.7204V8.96783ZM25.2602 32.8421C25.7372 25.3446 27.5456 20.6782 29.1771 17.915V32.7204C29.1771 33.8353 28.2733 34.7391 27.1584 34.7391C26.0105 34.7391 25.1978 33.8228 25.2602 32.8421ZM29.1771 41.9778V41.8046C29.1771 41.2472 28.7251 40.7952 28.1677 40.7952C27.6102 40.7952 27.1584 41.2472 27.1584 41.8046V43.9965L29.1771 41.9778ZM29.1771 47.6875V50.0526L27.1584 52.0713V49.7062L29.1771 47.6875ZM29.1771 58.1275V55.7623L27.1584 57.7811V60.1462L29.1771 58.1275ZM29.1771 63.8372V84.1975C29.1771 84.7549 28.7251 85.2069 28.1677 85.2069C27.6102 85.2069 27.1584 84.7549 27.1584 84.1975V65.8559L29.1771 63.8372Z" fill="#E9F7F8" fill-opacity="0.85"/>
</g>
</svg>
