<svg width="98" height="98" viewBox="0 0 98 98" fill="none" xmlns="http://www.w3.org/2000/svg">
<g id="tooth">
<path id="Vector" fill-rule="evenodd" clip-rule="evenodd" d="M47.9779 23.1309C48.3802 22.8148 65.1797 9.74551 76.2835 22.6199C82.3792 29.6879 81.8624 37.0206 79.6004 44.2016L71.642 66.9989C69.3151 74.9254 67.6559 77.3722 63.5789 80.816C61.1589 82.8599 58.4296 79.3294 55.5574 75.6135C53.0691 72.3945 50.4734 69.0364 47.8782 69.0443C45.2401 69.0523 42.6027 72.4157 40.0793 75.6335C37.1689 79.3451 34.4103 82.8629 31.9774 80.816C27.0648 76.682 24.9105 70.9701 22.6586 61.8035C22.2252 60.0388 21.5657 57.9222 20.8385 55.5879C17.7886 45.7982 13.5459 32.1798 19.7687 24.6245C27.453 15.295 36.9977 13.7932 47.8761 23.056L47.9779 23.1309ZM42.6099 24.089C38.8463 21.5028 35.647 20.6802 32.9821 20.8899C29.7077 21.1473 26.3068 23.0372 22.8851 27.1915C20.3118 30.3157 20.0499 35.5936 21.4373 42.4889C22.098 45.7727 23.0619 49.0984 24.0327 52.257C24.2421 52.9386 24.4549 53.6215 24.6658 54.2982C25.4012 56.6582 26.1134 58.9434 26.5795 60.8404C28.6411 69.2324 30.4343 73.7426 33.687 76.9202C34.3584 76.2959 35.2077 75.2928 36.3313 73.869C36.5064 73.6469 36.688 73.415 36.8752 73.1759C38.0262 71.7065 39.3895 69.9658 40.7802 68.5743C42.2575 67.0962 44.6995 65.0165 47.8661 65.0068C51.0471 64.9971 53.4827 67.1105 54.9299 68.5783C56.3004 69.9686 57.6447 71.7098 58.7792 73.1792C58.9647 73.4194 59.1446 73.6524 59.318 73.8754C60.4186 75.2903 61.2523 76.2892 61.9116 76.914C63.2194 75.7316 64.0674 74.7445 64.8012 73.5169C65.7486 71.9322 66.631 69.7348 67.7681 65.8615C67.7871 65.7965 67.8079 65.7322 67.8303 65.6682L75.7677 42.9308C76.8055 39.6207 77.3326 36.5981 77.0574 33.7576C76.7895 30.9907 75.74 28.1718 73.2259 25.2568C69.0583 20.4243 63.938 20.3512 59.1075 21.8482C56.6747 22.602 54.4913 23.7248 52.8922 24.6849C52.2923 25.045 51.7866 25.3751 51.3942 25.6428L59.148 31.344C60.0462 32.0045 60.2389 33.268 59.5784 34.1662C58.9181 35.0645 57.6544 35.2573 56.7563 34.5968L45.8052 26.5445C45.6535 26.448 45.507 26.3406 45.3667 26.2221L43.0288 24.5032C42.8655 24.3831 42.7256 24.2432 42.6099 24.089ZM32.9791 77.4728L32.9869 77.4689C32.9815 77.4716 32.9789 77.4728 32.9791 77.4728Z" fill="#E9F7F8" fill-opacity="0.85"/>
</g>
</svg>
